<?xml version="1.0" encoding="UTF-8"?>
<!DOCTYPE svg PUBLIC "-//W3C//DTD SVG 1.1//EN" "http://www.w3.org/Graphics/SVG/1.1/DTD/svg11.dtd">
<!-- Creator: CorelDRAW 2018 (64-Bit) -->
<svg xmlns="http://www.w3.org/2000/svg" xml:space="preserve" width="42.3327mm" height="25.2985mm" fill="white" version="1.1" style="shape-rendering:geometricPrecision; text-rendering:geometricPrecision; image-rendering:optimizeQuality; fill-rule:evenodd; clip-rule:evenodd"
viewBox="0 0 772.38 461.58"
 xmlns:xlink="http://www.w3.org/1999/xlink">
 <g id="Layer_x0020_1">
  <metadata id="CorelCorpID_0Corel-Layer"/>
  <path class="fil0" d="M-0 190.99l0 -14.96c5.08,-0.18 8.98,-1.09 11.7,-2.72 2.72,-1.63 4.63,-4.4 5.71,-8.3 1.09,-3.9 1.63,-9.39 1.63,-16.46l0 -107.47c0,-4.9 0.14,-9.43 0.41,-13.6 0.27,-4.17 0.5,-7.44 0.68,-9.79 -3.08,0.18 -6.62,0.32 -10.61,0.41 -3.99,0.09 -7.16,0.23 -9.52,0.41l0 -17.96c11.61,-0.18 23.31,-0.27 35.09,-0.27 11.79,0 23.67,-0.09 35.64,-0.27 21.4,-0.18 38.36,3.72 50.88,11.7 12.51,7.98 18.41,20.22 17.68,36.73 -0.18,5.44 -1.81,10.79 -4.9,16.05 -3.08,5.26 -7.62,9.97 -13.6,14.15 -5.99,4.17 -13.51,7.35 -22.58,9.52l0 0.27c18.68,1.99 32.56,7.57 41.62,16.73 9.07,9.16 13.6,19.81 13.6,31.97 0,11.61 -2.81,21.4 -8.43,29.38 -5.62,7.98 -13.38,14.06 -23.26,18.23 -9.88,4.17 -21.08,6.26 -33.6,6.26l-88.15 0zm52.23 -16.6c3.08,0.18 6.3,0.27 9.66,0.27 3.36,0 6.57,-0.05 9.66,-0.14 3.08,-0.09 5.71,-0.14 7.89,-0.14 11.97,-0.36 21.08,-3.85 27.34,-10.47 6.26,-6.62 9.39,-15.55 9.39,-26.8 0,-9.25 -1.86,-16.5 -5.58,-21.76 -3.72,-5.26 -8.52,-8.98 -14.42,-11.16 -5.9,-2.18 -12.2,-3.26 -18.91,-3.26 -4.9,0 -9.16,0 -12.79,0 -3.63,0 -7.35,0.18 -11.15,0.54l0 50.06c0,4.9 -0.09,9.34 -0.27,13.33 -0.18,3.99 -0.45,7.16 -0.82,9.52zm1.09 -89.51l16.05 -0.27c8.53,-0.18 15.24,-2.04 20.13,-5.58 4.9,-3.54 8.43,-8.16 10.61,-13.87 2.18,-5.71 3.26,-11.93 3.26,-18.64 -0.18,-7.98 -1.95,-14.19 -5.3,-18.64 -3.36,-4.44 -7.48,-7.57 -12.38,-9.39 -4.9,-1.81 -9.97,-2.63 -15.23,-2.45 -3.81,0 -6.98,0.54 -9.52,1.63 -2.54,1.09 -4.44,3.36 -5.71,6.8 -1.27,3.45 -1.9,8.62 -1.9,15.51l0 44.89zm117.53 91.68c5.26,0 8.98,-1.13 11.15,-3.4 2.18,-2.27 3.54,-5.49 4.08,-9.66 0.54,-4.17 0.82,-8.89 0.82,-14.15l0 -51.15c0,-3.27 0.09,-6.71 0.27,-10.34 0.18,-3.63 0.45,-7.35 0.82,-11.16 -3.08,0.18 -6.44,0.32 -10.07,0.41 -3.63,0.09 -6.62,0.23 -8.98,0.41l0 -17.41 10.07 0c7.25,0 13.33,-0.86 18.23,-2.58 4.9,-1.72 8.34,-3.49 10.34,-5.31l11.43 0c0.36,2.18 0.63,5.62 0.82,10.34 0.18,4.72 0.27,9.43 0.27,14.15 4.17,-5.44 8.52,-10.11 13.06,-14.01 4.54,-3.9 9.2,-6.89 14.01,-8.98 4.81,-2.09 9.75,-3.13 14.83,-3.13 5.8,0 10.93,1.63 15.37,4.9 4.44,3.27 6.67,8.52 6.67,15.78 0,2.36 -0.59,4.9 -1.77,7.62 -1.18,2.72 -2.99,4.99 -5.44,6.8 -2.45,1.81 -5.76,2.72 -9.93,2.72 -3.81,0 -7.39,-1.22 -10.75,-3.67 -3.36,-2.45 -5.12,-6.39 -5.3,-11.84 -3.81,-0.18 -7.75,1.18 -11.84,4.08 -4.08,2.9 -7.75,6.44 -11.02,10.61 -3.26,4.17 -5.8,8.43 -7.62,12.79l0.27 51.69c0,2.9 -0.09,6.39 -0.27,10.47 -0.18,4.08 -0.45,8.03 -0.82,11.83 2.9,-0.36 5.98,-0.59 9.25,-0.68 3.26,-0.09 5.98,-0.14 8.16,-0.14l0 17.41 -66.11 0 0 -14.42zm182.82 18.77c-10.52,0 -19.09,-2 -25.71,-5.99 -6.62,-3.99 -11.47,-10.38 -14.56,-19.18 -3.08,-8.8 -4.62,-20.36 -4.62,-34.69l0 -37c0,-3.08 0.09,-6.53 0.27,-10.34 0.18,-3.81 0.36,-7.62 0.54,-11.43 -2.9,0.18 -6.17,0.32 -9.79,0.41 -3.63,0.09 -6.62,0.23 -8.98,0.41l0 -17.41 4.63 0c9.97,0 17.73,-0.86 23.26,-2.58 5.53,-1.72 9.3,-3.49 11.29,-5.31l12.51 0 0 83.25c0,13.06 1.77,22.76 5.31,29.11 3.54,6.35 9.3,9.52 17.28,9.52 5.44,-0.18 10.84,-1.81 16.19,-4.9 5.35,-3.08 9.66,-6.71 12.92,-10.88l0 -58.77c0,-3.63 0.09,-7.39 0.27,-11.29 0.18,-3.9 0.45,-7.75 0.82,-11.56 -2.9,0.18 -6.21,0.32 -9.93,0.41 -3.72,0.09 -6.76,0.23 -9.12,0.41l0 -17.41 7.07 0c8.34,0 15.28,-0.91 20.81,-2.72 5.53,-1.81 9.2,-3.54 11.02,-5.17l12.51 0 0 97.67c0,2.54 -0.09,6.26 -0.27,11.16 -0.18,4.9 -0.45,9.34 -0.82,13.33 3.08,-0.36 6.35,-0.59 9.79,-0.68 3.45,-0.09 6.26,-0.23 8.43,-0.41l0 17.68 -47.34 0c-0.36,-2.54 -0.68,-5.08 -0.95,-7.62 -0.27,-2.54 -0.5,-4.99 -0.68,-7.35 -5.62,5.08 -11.93,9.57 -18.91,13.47 -6.98,3.9 -14.74,5.85 -23.26,5.85zm109.64 -4.35l0 -14.42c5.26,0 8.98,-1.13 11.15,-3.4 2.18,-2.27 3.54,-5.49 4.08,-9.66 0.54,-4.17 0.82,-8.89 0.82,-14.15l0 -51.15c0,-3.27 0.09,-6.71 0.27,-10.34 0.18,-3.63 0.45,-7.35 0.82,-11.16 -2.9,0.18 -6.21,0.36 -9.93,0.54 -3.72,0.18 -6.76,0.36 -9.11,0.54l0 -17.68c8.16,0 14.87,-0.41 20.13,-1.22 5.26,-0.82 9.34,-1.86 12.24,-3.13 2.9,-1.27 4.99,-2.45 6.26,-3.54l11.43 0c0.36,1.99 0.54,3.63 0.54,4.9 0,1.27 0.09,2.58 0.27,3.94 0.18,1.36 0.45,3.31 0.82,5.85 3.63,-3.08 7.85,-5.85 12.65,-8.3 4.81,-2.45 9.66,-4.4 14.55,-5.85 4.9,-1.45 9.43,-2.18 13.6,-2.18 16.32,0 28.02,4.81 35.09,14.42 7.07,9.61 10.61,24.94 10.61,45.98l0 41.08c0,2.9 -0.05,6.39 -0.14,10.47 -0.09,4.08 -0.41,8.03 -0.95,11.83 3.08,-0.36 6.26,-0.59 9.52,-0.68 3.27,-0.09 5.99,-0.14 8.16,-0.14l0 17.41 -66.11 0 0 -14.42c5.26,0 9.02,-1.13 11.29,-3.4 2.27,-2.27 3.67,-5.49 4.22,-9.66 0.54,-4.17 0.82,-8.89 0.82,-14.15l-0.27 -38.63c0,-13.06 -1.95,-22.81 -5.85,-29.25 -3.9,-6.44 -10.29,-9.66 -19.18,-9.66 -5.26,0.18 -10.43,1.45 -15.51,3.81 -5.08,2.36 -9.34,5.35 -12.79,8.98 0.18,2.18 0.27,4.44 0.27,6.8 0,2.36 0,4.72 0,7.07l-0.27 53.6c0,2.9 -0.05,6.39 -0.14,10.47 -0.09,4.08 -0.41,8.03 -0.95,11.83 2.9,-0.36 6.03,-0.59 9.39,-0.68 3.36,-0.09 6.12,-0.14 8.3,-0.14l0 17.41 -66.11 0zm237.24 4.35c-12.88,0 -24.58,-2.86 -35.09,-8.57 -10.52,-5.71 -18.82,-13.78 -24.89,-24.21 -6.08,-10.43 -9.11,-22.63 -9.11,-36.59 0,-14.69 3.08,-27.75 9.25,-39.18 6.17,-11.43 14.46,-20.31 24.89,-26.66 10.43,-6.35 21.9,-9.52 34.42,-9.52 12.88,0 24.49,2.9 34.82,8.71 10.34,5.8 18.55,13.88 24.62,24.21 6.08,10.34 9.11,22.58 9.11,36.73 0,14.87 -2.95,27.98 -8.84,39.31 -5.9,11.34 -13.97,20.13 -24.21,26.39 -10.25,6.26 -21.9,9.39 -34.96,9.39zm1.36 -16.6c8.16,0 14.42,-2.54 18.77,-7.62 4.35,-5.08 7.39,-11.56 9.11,-19.45 1.72,-7.89 2.58,-16 2.58,-24.35 0,-7.07 -0.59,-14.24 -1.77,-21.49 -1.18,-7.25 -3.04,-13.83 -5.58,-19.73 -2.54,-5.89 -5.89,-10.61 -10.07,-14.15 -4.17,-3.54 -9.25,-5.3 -15.23,-5.3 -7.98,0.18 -14.33,2.81 -19.04,7.89 -4.72,5.08 -8.12,11.52 -10.2,19.32 -2.09,7.8 -3.13,16.05 -3.13,24.76 0,9.79 1.18,19.36 3.54,28.7 2.36,9.34 6.08,16.96 11.16,22.85 5.08,5.9 11.7,8.75 19.86,8.57zm-477.47 278.48l0 -14.96c5.08,-0.18 8.98,-1.04 11.7,-2.59 2.72,-1.54 4.63,-4.26 5.71,-8.16 1.09,-3.9 1.63,-9.3 1.63,-16.19l0 -108.55c0,-4.53 0.14,-8.89 0.41,-13.06 0.27,-4.17 0.5,-7.44 0.68,-9.79 -3.08,0.18 -6.62,0.32 -10.61,0.41 -3.99,0.09 -7.16,0.23 -9.52,0.41l0 -17.96 72.37 0 0 14.96c-4.9,0.18 -8.75,1.04 -11.56,2.58 -2.81,1.54 -4.76,4.22 -5.85,8.03 -1.09,3.81 -1.63,9.25 -1.63,16.32l0 42.44 19.86 0 25.3 -41.62c2.72,-4.9 5.8,-9.89 9.25,-14.96 3.45,-5.08 6.62,-8.71 9.52,-10.88 -2.9,0.18 -5.9,0.32 -8.98,0.41 -3.08,0.09 -5.8,0.23 -8.16,0.41l0 -17.68 63.93 0 0 14.96c-5.08,0.36 -10.16,1.27 -15.23,2.72 -5.08,1.45 -10.16,4.31 -15.23,8.57 -5.08,4.26 -10.34,10.75 -15.78,19.45l-26.39 42.17c4.17,2.54 7.75,5.35 10.75,8.43 2.99,3.08 5.76,6.35 8.3,9.79l28.84 39.99c4.72,6.35 9.11,11.7 13.2,16.05 4.08,4.35 8.07,7.62 11.97,9.79 3.9,2.18 7.84,3.36 11.83,3.54l0 14.96 -38.9 0c-1.63,-0.18 -4.03,-1.72 -7.21,-4.63 -3.17,-2.9 -6.53,-6.48 -10.07,-10.75 -3.54,-4.26 -6.76,-8.3 -9.66,-12.11l-28.84 -40.81c-2.72,-3.81 -5.62,-7.57 -8.7,-11.29 -3.08,-3.72 -5.99,-6.58 -8.71,-8.57l-10.88 0.27 0 47.34c0,4.9 -0.09,9.43 -0.27,13.6 -0.18,4.17 -0.45,7.44 -0.82,9.79 3.08,-0.18 6.62,-0.36 10.61,-0.54 3.99,-0.18 7.16,-0.27 9.52,-0.27l0 17.96 -72.37 0zm248.93 4.35c-12.88,0 -24.58,-2.86 -35.09,-8.57 -10.52,-5.71 -18.82,-13.78 -24.89,-24.21 -6.08,-10.43 -9.11,-22.63 -9.11,-36.59 0,-14.69 3.08,-27.75 9.25,-39.18 6.17,-11.43 14.46,-20.31 24.89,-26.66 10.43,-6.35 21.9,-9.52 34.42,-9.52 12.88,0 24.49,2.9 34.82,8.71 10.34,5.8 18.55,13.88 24.62,24.21 6.08,10.34 9.11,22.58 9.11,36.73 0,14.87 -2.95,27.98 -8.84,39.31 -5.9,11.34 -13.97,20.13 -24.21,26.39 -10.25,6.26 -21.9,9.39 -34.96,9.39zm1.36 -16.6c8.16,0 14.42,-2.54 18.77,-7.62 4.35,-5.08 7.39,-11.56 9.11,-19.45 1.72,-7.89 2.58,-16 2.58,-24.35 0,-7.07 -0.59,-14.24 -1.77,-21.49 -1.18,-7.25 -3.04,-13.83 -5.58,-19.73 -2.54,-5.89 -5.89,-10.61 -10.07,-14.15 -4.17,-3.54 -9.25,-5.3 -15.23,-5.3 -7.98,0.18 -14.33,2.81 -19.04,7.89 -4.72,5.08 -8.12,11.52 -10.2,19.32 -2.09,7.8 -3.13,16.05 -3.13,24.76 0,9.79 1.18,19.36 3.54,28.7 2.36,9.34 6.08,16.96 11.16,22.85 5.08,5.9 11.7,8.75 19.86,8.57zm87.33 -2.18c5.26,0 8.98,-1.13 11.15,-3.4 2.18,-2.27 3.54,-5.49 4.08,-9.66 0.54,-4.17 0.82,-8.89 0.82,-14.15l0 -50.88c0,-3.08 0.09,-6.48 0.27,-10.2 0.18,-3.72 0.45,-7.57 0.82,-11.56 -3.08,0.18 -6.44,0.36 -10.07,0.54 -3.63,0.18 -6.62,0.36 -8.98,0.54l0 -17.68c8.16,0 14.92,-0.41 20.27,-1.22 5.35,-0.82 9.52,-1.86 12.51,-3.13 2.99,-1.27 5.12,-2.45 6.39,-3.54l12.24 0 0 99.85c0,2.9 -0.05,6.39 -0.14,10.47 -0.09,4.08 -0.41,8.03 -0.95,11.83 2.9,-0.36 6.03,-0.59 9.39,-0.68 3.36,-0.09 6.12,-0.14 8.3,-0.14l0 17.41 -66.11 0 0 -14.42zm31.29 -147.73c-5.26,0 -9.7,-1.95 -13.33,-5.85 -3.63,-3.9 -5.44,-8.66 -5.44,-14.28 0,-5.62 1.86,-10.43 5.58,-14.42 3.72,-3.99 8.12,-5.98 13.2,-5.98 5.26,0 9.66,1.99 13.2,5.98 3.54,3.99 5.3,8.8 5.3,14.42 0,5.62 -1.72,10.38 -5.17,14.28 -3.45,3.9 -7.89,5.85 -13.33,5.85zm118.62 166.5c-12.15,0 -23.35,-2.72 -33.6,-8.16 -10.25,-5.44 -18.41,-13.38 -24.49,-23.8 -6.08,-10.43 -9.11,-22.99 -9.11,-37.68 0,-9.97 1.72,-19.45 5.17,-28.43 3.45,-8.98 8.3,-16.96 14.55,-23.94 6.26,-6.98 13.74,-12.51 22.45,-16.6 8.71,-4.08 18.32,-6.12 28.84,-6.12 11.06,0 20.4,1.68 28.02,5.03 7.62,3.36 13.42,7.8 17.41,13.33 3.99,5.53 5.98,11.38 5.98,17.55 0,4.9 -1.4,9.16 -4.22,12.79 -2.81,3.63 -6.85,5.53 -12.11,5.71 -6.17,0.18 -10.47,-1.59 -12.92,-5.31 -2.45,-3.72 -3.67,-7.21 -3.67,-10.47 0,-1.81 0.27,-3.76 0.82,-5.85 0.54,-2.09 1.45,-4.04 2.72,-5.85 -1.27,-3.26 -3.36,-5.67 -6.26,-7.21 -2.9,-1.54 -5.9,-2.59 -8.98,-3.13 -3.08,-0.54 -5.53,-0.73 -7.35,-0.54 -9.98,0.36 -18.23,4.9 -24.76,13.6 -6.53,8.71 -9.79,21.4 -9.79,38.09 0,9.98 1.4,19.18 4.22,27.61 2.81,8.43 7.12,15.23 12.92,20.4 5.8,5.17 13.24,7.85 22.31,8.03 7.98,0.18 15.69,-1.77 23.12,-5.85 7.44,-4.08 13.51,-9.39 18.23,-15.92l10.88 10.07c-5.98,8.53 -12.42,15.15 -19.32,19.86 -6.89,4.71 -13.83,8.02 -20.81,9.93 -6.98,1.9 -13.74,2.86 -20.27,2.86zm-9.79 -159.43l-10.88 -9.52 22.58 -37.54c2.18,-3.45 4.63,-5.85 7.35,-7.21 2.72,-1.36 5.49,-1.95 8.3,-1.77 2.81,0.18 5.21,1.09 7.21,2.72 2.18,2 3.54,4.4 4.08,7.21 0.55,2.81 0.32,5.71 -0.68,8.7 -1,2.99 -2.95,5.85 -5.85,8.57l-32.1 28.84z"/>
 </g>
</svg>
